#define 1473203427988_width 11
#define 1473203427988_height 11
static char 1473203427988_bits[] = {
  0xC0, 0x01, 0xF8, 0x03, 0x0C, 0x06, 0x07, 0x04, 0x01, 0x06, 0x07, 0x03, 
  0xFC, 0x01, 0x60, 0x00, 0x70, 0x00, 0x38, 0x00, 0x0C, 0x00, };
