#define 1473203432292_width 11
#define 1473203432292_height 11
static char 1473203432292_bits[] = {
  0x00, 0x00, 0xDE, 0x03, 0x53, 0x06, 0x71, 0x04, 0x71, 0x04, 0x01, 0x06, 
  0x03, 0x02, 0x06, 0x03, 0x8C, 0x01, 0xD8, 0x00, 0x70, 0x00, };
