#define 1473203440393_width 11
#define 1473203440393_height 11
static char 1473203440393_bits[] = {
  0x00, 0x00, 0xDE, 0x03, 0xDF, 0x07, 0xFF, 0x07, 0xFF, 0x07, 0xFF, 0x07, 
  0xFF, 0x03, 0xFE, 0x03, 0xFC, 0x01, 0xF8, 0x00, 0x70, 0x00, };
