#define 1473203448184_width 11
#define 1473203448184_height 11
static char 1473203448184_bits[] = {
  0x00, 0x00, 0xDE, 0x03, 0x53, 0x06, 0x71, 0x04, 0x71, 0x04, 0x01, 0x06, 
  0xFF, 0x03, 0xFE, 0x03, 0xFC, 0x01, 0xF8, 0x00, 0x70, 0x00, };
