#define 1473203462426_width 11
#define 1473203462426_height 11
static char 1473203462426_bits[] = {
  0x00, 0x00, 0x00, 0x00, 0x00, 0x00, 0xF8, 0x00, 0x88, 0x00, 0x88, 0x00, 
  0x88, 0x00, 0xD8, 0x00, 0x50, 0x00, 0x50, 0x00, 0x70, 0x00, };
