#define 1473203465870_width 11
#define 1473203465870_height 11
static char 1473203465870_bits[] = {
  0x24, 0x01, 0xA8, 0x00, 0x01, 0x04, 0xFA, 0x02, 0x88, 0x00, 0x89, 0x04, 
  0x8A, 0x02, 0xD8, 0x00, 0x50, 0x00, 0x50, 0x00, 0x70, 0x00, };
