#define 1473203468919_width 11
#define 1473203468919_height 11
static char 1473203468919_bits[] = {
  0x07, 0x07, 0x01, 0x04, 0x01, 0x04, 0x00, 0x00, 0x70, 0x00, 0x70, 0x00, 
  0x70, 0x00, 0x00, 0x04, 0x01, 0x04, 0x01, 0x04, 0x07, 0x07, };
