#define 1473203474300_width 11
#define 1473203474300_height 11
static char 1473203474300_bits[] = {
  0x70, 0x00, 0xD8, 0x00, 0x8C, 0x01, 0x04, 0x01, 0x04, 0x01, 0x04, 0x01, 
  0x04, 0x01, 0xFE, 0x03, 0xFE, 0x03, 0xFE, 0x03, 0xFE, 0x03, };
