#define 1473203478540_width 11
#define 1473203478540_height 11
static char 1473203478540_bits[] = {
  0x70, 0x00, 0xFC, 0x01, 0xFE, 0x03, 0xDE, 0x03, 0xFF, 0x07, 0xFF, 0x07, 
  0x1F, 0x04, 0xFE, 0x03, 0xFE, 0x03, 0xFC, 0x01, 0x70, 0x00, };
