#define 1473203489982_width 11
#define 1473203489982_height 11
static char 1473203489982_bits[] = {
  0x70, 0x00, 0xFC, 0x03, 0xFE, 0x01, 0xDE, 0x00, 0x7F, 0x00, 0x3F, 0x00, 
  0x1F, 0x00, 0xFE, 0x03, 0xFE, 0x03, 0xFC, 0x01, 0x70, 0x00, };
