#define 1473203493561_width 11
#define 1473203493561_height 11
static char 1473203493561_bits[] = {
  0xF8, 0x00, 0x88, 0x00, 0xD8, 0x00, 0x88, 0x00, 0xF8, 0x00, 0x24, 0x01, 
  0xFC, 0x01, 0x20, 0x00, 0xF8, 0x00, 0x88, 0x00, 0x88, 0x00, };
