#define 1473203497301_width 11
#define 1473203497301_height 11
static char 1473203497301_bits[] = {
  0x02, 0x02, 0x03, 0x06, 0xF8, 0x00, 0xFC, 0x01, 0x76, 0x03, 0x26, 0x03, 
  0xFE, 0x03, 0xFC, 0x01, 0xA8, 0x00, 0xFB, 0x06, 0x02, 0x02, };
