#define 1473203500641_width 11
#define 1473203500641_height 11
static char 1473203500641_bits[] = {
  0x20, 0x00, 0x20, 0x00, 0x70, 0x00, 0x71, 0x04, 0xF9, 0x04, 0xFF, 0x07, 
  0xDF, 0x07, 0x8B, 0x06, 0xA9, 0x04, 0xF8, 0x00, 0x70, 0x00, };
