#define 1473203508024_width 11
#define 1473203508024_height 11
static char 1473203508024_bits[] = {
  0xE0, 0x01, 0xF0, 0x03, 0x10, 0x02, 0x10, 0x02, 0x10, 0x02, 0x10, 0x00, 
  0x10, 0x00, 0xFE, 0x03, 0xFE, 0x03, 0xFE, 0x03, 0xFE, 0x03, };
