#define 1473203512562_width 11
#define 1473203512562_height 11
static char 1473203512562_bits[] = {
  0xF8, 0x00, 0x8E, 0x03, 0x03, 0x06, 0xF9, 0x04, 0x8C, 0x01, 0x06, 0x03, 
  0x72, 0x02, 0xF8, 0x00, 0xF8, 0x00, 0x20, 0x00, 0x20, 0x00, };
